<?xml version="1.0" encoding="utf-8"?>
<!-- Generator: Adobe Illustrator 27.4.1, SVG Export Plug-In . SVG Version: 6.00 Build 0)  -->
<svg version="1.1" id="Layer_1" xmlns="http://www.w3.org/2000/svg" xmlns:xlink="http://www.w3.org/1999/xlink" x="0px" y="0px"
	 viewBox="0 0 200 200" style="enable-background:new 0 0 200 200;" xml:space="preserve">
<style type="text/css">
	.st0{fill:black;}
</style>
<path class="st0" d="M173.31,130.8l-4.95-12.462c-0.014-0.033-0.026-0.067-0.04-0.1l-1.307-3.291
	c-1.216-5.523-2.431-11.046-3.646-16.57c-1.216,5.523-2.431,11.046-3.646,16.57l-1.31,3.298c-0.012,0.027-0.021,0.055-0.033,0.082
	l-4.954,12.473l0.22,0.332l3.622-2.203c-3.895,26.104-25.227,46.568-51.764,49.037V80.137h33.018c2.98,0,5.397-2.416,5.397-5.397
	s-2.416-5.397-5.397-5.397h-33.018V45.201c7.22-2.294,12.467-9.057,12.467-17.026c0-9.85-8.013-17.864-17.864-17.864
	s-17.864,8.013-17.864,17.864c0,7.969,5.247,14.732,12.467,17.026v24.143H61.692c-2.98,0-5.397,2.416-5.397,5.397
	s2.416,5.397,5.397,5.397H94.71v97.828c-26.537-2.468-47.869-22.933-51.764-49.037l3.622,2.203l0.22-0.332l-4.954-12.473
	c-0.011-0.027-0.021-0.055-0.033-0.082l-1.31-3.298c-1.215-5.523-2.43-11.046-3.646-16.57c-1.215,5.523-2.43,11.046-3.646,16.57
	l-1.307,3.291c-0.014,0.033-0.026,0.067-0.04,0.1l-4.95,12.462l0.166,0.332l4.839-2.927c3.9,34.182,32.989,60.827,68.199,60.827
	s64.298-26.645,68.199-60.827l4.839,2.927L173.31,130.8z M100.106,21.105c3.897,0,7.07,3.171,7.07,7.07s-3.173,7.07-7.07,7.07
	s-7.07-3.171-7.07-7.07S96.209,21.105,100.106,21.105z"/>
</svg>
