<?xml version="1.0" encoding="iso-8859-1"?>
<!-- Uploaded to: SVG Repo, www.svgrepo.com, Generator: SVG Repo Mixer Tools -->
<!DOCTYPE svg PUBLIC "-//W3C//DTD SVG 1.1//EN" "http://www.w3.org/Graphics/SVG/1.1/DTD/svg11.dtd">
<svg fill="black" height="800px" width="800px" version="1.1" id="Capa_1" xmlns="http://www.w3.org/2000/svg" xmlns:xlink="http://www.w3.org/1999/xlink" 
	 viewBox="0 0 425.702 425.702" xml:space="preserve">
<g>
	<g>
		<path d="M212.849,91.706c-84.531,0-153.303,68.771-153.303,153.303c0,84.534,68.771,153.309,153.303,153.309
			c84.533,0,153.307-68.774,153.307-153.309C366.156,160.478,297.382,91.706,212.849,91.706z M219.851,384.142v-23.293
			c0-3.866-3.134-7-7-7c-3.866,0-7,3.134-7,7v23.293c-71.254-3.543-128.584-60.875-132.129-132.131h23.291c3.867,0,7-3.133,7-7
			c0-3.865-3.133-7-7-7H73.721c3.542-71.255,60.874-128.587,132.13-132.13v23.293c0,3.866,3.134,7,7,7c3.866,0,7-3.134,7-7v-23.292
			c71.256,3.544,128.588,60.875,132.13,132.129h-23.292c-3.867,0-7,3.135-7,7c0,3.867,3.133,7,7,7h23.291
			C348.435,323.266,291.105,380.597,219.851,384.142z"/>
		<path d="M240.636,66.458c6.961-7.056,11.266-16.736,11.266-27.406C251.902,17.519,234.384,0,212.851,0S173.8,17.519,173.8,39.052
			c0,10.67,4.305,20.35,11.265,27.405C98.577,79.862,32.161,154.823,32.161,245.009c0,99.635,81.057,180.693,180.688,180.693
			c99.635,0,180.692-81.059,180.692-180.693C393.542,154.824,327.126,79.863,240.636,66.458z M212.849,411.702
			c-91.912,0-166.688-74.779-166.688-166.693c0-91.912,74.776-166.688,166.688-166.688c91.914,0,166.692,74.775,166.692,166.688
			C379.542,336.923,304.763,411.702,212.849,411.702z M212.851,14c13.813,0,25.051,11.237,25.051,25.052
			c0,13.813-11.237,25.051-25.051,25.051c-13.814,0-25.051-11.238-25.051-25.051C187.8,25.237,199.038,14,212.851,14z"/>
		<path d="M239.792,237.301c-1.289-4.529-3.709-8.683-7.132-12.104c-3.423-3.422-7.576-5.843-12.107-7.131l-59.408-34.322
			c-2.744-1.586-6.211-1.13-8.451,1.111c-2.241,2.24-2.697,5.707-1.111,8.451l34.319,59.403c1.288,4.532,3.709,8.688,7.133,12.112
			c3.423,3.423,7.578,5.845,12.109,7.134l59.411,34.325c1.094,0.631,2.301,0.939,3.5,0.939h0.061c3.849-0.021,6.961-3.148,6.961-7
			c0-1.456-0.444-2.808-1.205-3.928L239.792,237.301z M193.037,225.202c-1.529,1.528-2.852,3.206-3.971,4.995l-12.276-21.248
			l21.249,12.276C196.248,222.346,194.568,223.671,193.037,225.202z M222.761,254.927c-2.646,2.646-6.166,4.104-9.908,4.104
			c-3.746,0-7.268-1.459-9.918-4.109c-2.648-2.646-4.105-6.166-4.105-9.909c0.001-3.743,1.459-7.263,4.106-9.911
			c2.65-2.65,6.173-4.109,9.917-4.109c3.742,0,7.262,1.457,9.908,4.105c2.649,2.649,4.108,6.171,4.108,9.915
			C226.87,248.755,225.411,252.276,222.761,254.927z M227.665,268.797c1.789-1.118,3.468-2.442,4.996-3.972
			c1.53-1.53,2.856-3.211,3.976-5.002l12.277,21.25L227.665,268.797z"/>
	</g>
</g>
</svg>