<?xml version="1.0" encoding="utf-8"?>
<!-- Generator: Adobe Illustrator 27.4.1, SVG Export Plug-In . SVG Version: 6.00 Build 0)  -->
<svg version="1.1" id="Layer_1" xmlns="http://www.w3.org/2000/svg" xmlns:xlink="http://www.w3.org/1999/xlink" x="0px" y="0px"
	 viewBox="0 0 200 200" style="enable-background:new 0 0 200 200;" xml:space="preserve">
<style type="text/css">
	.st0{fill:black;}
</style>
<g>
	<path class="st0" d="M103.251,96.209c-2.165-2.597-8.426-8.252-22.542-9.374c-0.901-0.07-1.783,0.337-2.313,1.075
		c-0.531,0.738-0.635,1.701-0.275,2.536c0.79,1.841,2.602,7.153,2.513,11.682c-7.517,3.007-13.263,9.403-15.839,12.666
		l-14.501-8.715c-0.918-0.552-2.084-0.485-2.93,0.176c-0.846,0.657-1.199,1.769-0.89,2.796l3.972,13.183l-3.972,13.189
		c-0.309,1.027,0.046,2.138,0.892,2.797c0.846,0.657,2.01,0.727,2.928,0.175l14.646-8.806c4.495,4.962,18.604,18.696,36.989,18.696
		c1.376,0,4.302-0.167,6.725-0.628c1.407-0.269,2.331-1.626,2.063-3.034c-0.269-1.408-1.632-2.335-3.034-2.063
		c-2.132,0.405-4.798,0.537-5.754,0.537c-19.429,0-34.278-18.291-34.425-18.475c-0.813-1.018-2.255-1.277-3.364-0.605l-10.76,6.469
		l2.26-7.503c0.147-0.489,0.147-1.01,0-1.497l-2.26-7.498l10.76,6.465c1.183,0.713,2.718,0.369,3.489-0.775
		c0.07-0.103,6.996-10.251,16.257-13.208c0.956-0.306,1.652-1.136,1.782-2.132c0.546-4.126-0.408-8.666-1.344-11.844
		c11.818,1.951,15.327,7.531,15.347,7.563c0.46,0.813,1.322,1.317,2.258,1.317c12.886,0.001,25.164,7.392,34.729,20.858
		c-5.181,7.286-11.284,12.924-17.807,16.462c-2.822-3.81-4.522-8.673-4.833-13.91c-0.085-1.43-1.343-2.531-2.742-2.436
		c-1.43,0.084-2.521,1.313-2.436,2.743c0.42,7.13,3.045,13.732,7.389,18.593c0.768,0.857,2.01,1.11,3.051,0.612
		c8.469-4.041,16.313-11.168,22.684-20.612c0.592-0.877,0.592-2.024,0-2.901C131.58,105.385,117.878,96.703,103.251,96.209z"/>
	<path class="st0" d="M124.793,118.538c0.48-0.493,0.765-1.154,0.765-1.842c0-0.674-0.285-1.349-0.765-1.829
		c-0.973-0.973-2.698-0.973-3.671,0c-0.48,0.48-0.752,1.155-0.752,1.829c0,0.688,0.272,1.349,0.752,1.842
		c0.48,0.48,1.154,0.752,1.842,0.752C123.637,119.291,124.312,119.018,124.793,118.538z"/>
	<path class="st0" d="M152.308,27.335l6.028-13.36c0.362-0.802,0.293-1.734-0.186-2.474c-0.478-0.74-1.298-1.187-2.179-1.187H42.336
		c-0.88,0-1.701,0.447-2.179,1.187c-0.479,0.74-0.549,1.672-0.186,2.474l6.028,13.36C20.311,44.939,5.044,73.797,5.044,104.977
		c0,34.495,18.839,66.184,49.166,82.7c0.381,0.207,0.808,0.315,1.241,0.315h87.407c0.433,0,0.86-0.109,1.241-0.315
		c30.325-16.517,49.163-48.205,49.163-82.7C193.262,73.795,177.995,44.937,152.308,27.335z M142.192,182.804H56.116
		c-28.319-15.693-45.883-45.453-45.883-77.827c0-30.162,15.122-58.025,40.451-74.532c1.072-0.699,1.474-2.075,0.949-3.24
		l-5.279-11.702h105.602l-5.279,11.702c-0.526,1.165-0.123,2.541,0.949,3.24c25.329,16.506,40.45,44.368,40.45,74.532
		C188.074,137.351,170.51,167.111,142.192,182.804z"/>
	<path class="st0" d="M158.699,53.357c-4.945,0-9.569-1.97-13.019-5.545c-0.978-1.013-2.756-1.013-3.734,0
		c-3.45,3.576-8.074,5.545-13.019,5.545c-4.945,0-9.569-1.97-13.019-5.545c-0.978-1.013-2.757-1.013-3.734,0
		c-3.45,3.576-8.074,5.545-13.019,5.545c-4.948,0-9.571-1.97-13.019-5.545c-0.489-0.507-1.163-0.793-1.867-0.793
		c-0.705,0-1.378,0.286-1.867,0.793c-3.45,3.576-8.075,5.545-13.021,5.545c-4.945,0-9.569-1.97-13.019-5.545
		c-0.978-1.013-2.757-1.013-3.734,0c-3.448,3.576-8.071,5.545-13.019,5.545c-1.433,0-2.594,1.162-2.594,2.594
		s1.162,2.594,2.594,2.594c5.513,0,10.712-1.897,14.886-5.391c4.176,3.492,9.376,5.391,14.886,5.391
		c5.512,0,10.712-1.899,14.889-5.391c4.174,3.493,9.373,5.391,14.886,5.391c5.511,0,10.71-1.897,14.886-5.391
		c4.176,3.493,9.375,5.391,14.886,5.391c5.511,0,10.71-1.897,14.886-5.391c4.176,3.493,9.375,5.391,14.886,5.391
		c1.433,0,2.594-1.161,2.594-2.594S160.132,53.357,158.699,53.357z"/>
	<path class="st0" d="M147.465,109.278c-0.48,0.48-0.752,1.154-0.752,1.842c0,0.675,0.272,1.349,0.752,1.829
		c0.493,0.48,1.155,0.765,1.842,0.765c0.675,0,1.349-0.285,1.829-0.765c0.48-0.48,0.765-1.154,0.765-1.829
		c0-0.688-0.285-1.362-0.765-1.842C150.176,108.317,148.438,108.317,147.465,109.278z"/>
	<path class="st0" d="M154.287,95.826c-0.479,0.48-0.765,1.141-0.765,1.829c0,0.688,0.286,1.362,0.765,1.842
		c0.48,0.48,1.143,0.765,1.829,0.765c0.688,0,1.349-0.285,1.842-0.765c0.48-0.48,0.752-1.154,0.752-1.842
		c0-0.674-0.272-1.349-0.752-1.829C156.985,94.854,155.235,94.866,154.287,95.826z"/>
	<path class="st0" d="M141.693,90.665c-0.48,0.48-0.765,1.154-0.765,1.828c0,0.688,0.285,1.349,0.765,1.843
		c0.48,0.479,1.155,0.751,1.829,0.751c0.688,0,1.362-0.272,1.842-0.751c0.48-0.494,0.765-1.155,0.765-1.843
		c0-0.674-0.285-1.348-0.765-1.828C144.391,89.692,142.666,89.692,141.693,90.665z"/>
	<path class="st0" d="M147.465,75.968c-0.48,0.48-0.752,1.154-0.752,1.842c0,0.688,0.272,1.349,0.752,1.829
		c0.48,0.48,1.155,0.765,1.842,0.765c0.688,0,1.349-0.285,1.829-0.765c0.48-0.48,0.765-1.141,0.765-1.829
		c0-0.688-0.285-1.362-0.765-1.829C150.176,75.008,148.425,75.008,147.465,75.968z"/>
</g>
</svg>
