<?xml version="1.0" ?>

<!-- Uploaded to: SVG Repo, www.svgrepo.com, Generator: SVG Repo Mixer Tools -->
<svg fill="black" width="800px" height="800px" viewBox="0 0 512 512" xmlns="http://www.w3.org/2000/svg">

<g id="Aquatic_animal_sustainability">

<path d="M443.59,232.27c-29.27-33.41-59.29-57.41-89.77-71.85l-11.91-19.13a69.91,69.91,0,0,0-59.73-33l-91.76.49a12.14,12.14,0,0,0-11,17.25c6,12.76,9.09,32.63-4.79,59.48a294.12,294.12,0,0,0-41,38.94,1.77,1.77,0,0,1-2.41.24L88.9,192.66a19.79,19.79,0,0,0-31.74,15.88l.59,110.13a19.78,19.78,0,0,0,31.9,15.53l42-32.49a1.76,1.76,0,0,1,2.41.21c19.14,21.37,39.68,38.82,61.06,51.89a199.68,199.68,0,0,0,31.14,15.56l-22.35,29.15a9.22,9.22,0,0,0,5.77,14.72c24.53,4.11,73.51,6.42,95.43-34,47.61-6.71,94.22-36.36,138.83-88.4A44.91,44.91,0,0,0,443.59,232.27Zm-13.35,46.82c-47.1,54.93-95.77,83.06-144.66,83.59h-1.41c-26.57,0-53.38-8.15-79.71-24.24-19.87-12.15-39.06-28.48-57-48.54a19.85,19.85,0,0,0-26.84-2.43L78.63,320a1.78,1.78,0,0,1-2.88-1.4l-.14-26.85h26.15v-17H75.52l-.09-17h26.33v-17H75.34l-.18-32.32A1.79,1.79,0,0,1,78,207l42.3,32.05a19.84,19.84,0,0,0,26.81-2.73c17.76-20.25,36.77-36.78,56.52-49.14,26.6-16.65,53.8-25.1,80.83-25.1h0c48.89,0,97.86,27.62,145.54,82A26.82,26.82,0,0,1,430.24,279.09Z"/>

<path d="M375.2,235.18a17.92,17.92,0,1,0,18,17.82A17.91,17.91,0,0,0,375.2,235.18Z"/>

<path d="M192.79,281.8,185.38,286,178,290.1c.75,1.35,18.84,33.07,60.78,43.77l4.2-16.47C208.32,308.57,192.94,282.07,192.79,281.8Z"/>

</g>

</svg>