<?xml version="1.0" encoding="utf-8"?>
<!-- Generator: Adobe Illustrator 27.4.1, SVG Export Plug-In . SVG Version: 6.00 Build 0)  -->
<svg version="1.1" id="Layer_1" xmlns="http://www.w3.org/2000/svg" xmlns:xlink="http://www.w3.org/1999/xlink" x="0px" y="0px"
	 viewBox="0 0 200 200" style="enable-background:new 0 0 200 200;" xml:space="preserve">
<style type="text/css">
	.st0{fill:black;}
	.st1{fill:transparent;}
	.st2{fill: rgba(255,255,255,.5);}
</style>
<g>
	<path class="st0" d="M100.106,190.159c-13.107,0-27.18-10.019-35.979-19.396c-8.112-8.642-12.912-17.75-12.531-23.766
		c0.391-6.156-10.163-14.553-20.37-22.674C20.115,115.481,9.62,107.13,9.62,99.672c0-7.766,10.338-16.274,21.282-25.28
		c9.365-7.704,19.046-15.671,20.726-22.387c3.727-14.886,30.721-42.819,48.479-42.819c17.643,0,45.051,30.044,48.475,42.802
		c1.449,5.407,10.309,12.74,18.875,19.831c11.374,9.414,23.137,19.149,23.137,27.854c0,8.419-10.412,16.862-21.437,25.801
		c-9.079,7.361-18.465,14.972-20.586,21.921C143.373,164.419,121.395,190.159,100.106,190.159z M100.106,11.419
		c-16.576,0-42.821,27.184-46.31,41.128c-1.861,7.429-11.832,15.634-21.474,23.569C22.259,84.398,11.854,92.96,11.854,99.672
		c0,6.38,10.556,14.78,20.765,22.902c11.145,8.868,21.673,17.244,21.208,24.565c-0.345,5.421,4.226,13.888,11.928,22.095
		c8.481,9.036,21.956,18.691,34.351,18.691c9.253,0,19.628-5.274,29.213-14.851c7.933-7.926,14.649-18.261,17.112-26.332
		c2.322-7.602,11.979-15.432,21.317-23.005c10.133-8.216,20.61-16.711,20.61-24.065c0-7.654-11.861-17.471-22.325-26.132
		c-9.245-7.652-17.976-14.878-19.613-20.974C143.218,40.627,116.553,11.419,100.106,11.419z"/>
	<g>
		<g>
			<g>
				<polygon class="st1" points="83.073,31.471 83.073,70.984 70.044,85.781 29.579,85.071 44.933,52.808 70.044,31.471 				"/>
			</g>
			<polygon class="st1" points="117.007,31.471 117.007,70.984 130.036,85.781 170.502,85.071 155.147,52.808 130.036,31.471 			"/>
		</g>
		<g>
			<g>
				<polygon class="st1" points="83.073,168.448 83.073,128.936 70.044,114.138 29.579,114.848 44.933,147.112 70.044,168.448 				
					"/>
			</g>
			<polygon class="st1" points="117.007,168.448 117.007,128.936 130.036,114.138 170.502,114.848 155.147,147.112 130.036,168.448 
							"/>
		</g>
		<path class="st0" d="M100.106,23.651c-41.918,0-76.021,34.103-76.021,76.021s34.103,76.021,76.021,76.021
			s76.021-34.103,76.021-76.021S142.025,23.651,100.106,23.651z M166.085,78.439c-0.544-0.117-1.106-0.186-1.686-0.186h-36.185
			c-1.823-2.386-3.931-4.535-6.291-6.39V35.777c0-0.687-0.114-1.343-0.277-1.98C142.67,40.689,159.289,57.372,166.085,78.439z
			 M100.106,128.36c-15.819,0-28.689-12.87-28.689-28.688s12.871-28.688,28.689-28.688s28.689,12.87,28.689,28.688
			S115.925,128.36,100.106,128.36z M78.566,33.798c-0.163,0.636-0.277,1.292-0.277,1.979v36.086c-2.36,1.855-4.467,4.004-6.29,6.39
			H35.813c-0.579,0-1.141,0.069-1.685,0.186C40.924,57.372,57.543,40.69,78.566,33.798z M34.413,121.746
			c0.456,0.081,0.92,0.141,1.4,0.141h36.781c1.679,2.075,3.595,3.943,5.694,5.594v36.882c0,0.386,0.061,0.756,0.114,1.128
			C57.738,158.659,41.359,142.359,34.413,121.746z M121.81,165.491c0.053-0.372,0.114-0.741,0.114-1.128v-36.881
			c2.1-1.651,4.016-3.519,5.695-5.594h36.781c0.48,0,0.944-0.06,1.4-0.141C158.854,142.359,142.475,158.659,121.81,165.491z"/>
		<path class="st2" d="M40.811,70.984c1.577,33.248,14.931,69.47,45.543,85.886c4.242,2.095,8.819,3.619,13.753,4.613v0.67
			c-33.954,4.735-52.88-32.942-58.009-61.173c-1.818-9.932-2.441-20.018-1.957-29.997H40.811L40.811,70.984z"/>
	</g>
	<circle class="st0" cx="100.106" cy="9.185" r="4.903"/>
	<circle class="st0" cx="100.106" cy="190.159" r="4.903"/>
	<circle class="st0" cx="188.359" cy="99.672" r="4.903"/>
	<circle class="st0" cx="11.854" cy="99.672" r="4.903"/>
</g>
</svg>
