<?xml version="1.0" encoding="utf-8"?>
<!-- Generator: Adobe Illustrator 27.4.1, SVG Export Plug-In . SVG Version: 6.00 Build 0)  -->
<svg version="1.1" id="Layer_1" xmlns="http://www.w3.org/2000/svg" xmlns:xlink="http://www.w3.org/1999/xlink" x="0px" y="0px"
	 viewBox="0 0 200 200" style="enable-background:new 0 0 200 200;" xml:space="preserve">
<style type="text/css">
	.st0{fill:black;}
</style>
<path class="st0" d="M189.361,94.249h-21.388c-1.165-14.707-7.015-28.108-16.064-38.713l15.143-15.143
	c2.117-2.118,2.117-5.551,0-7.669c-2.118-2.117-5.551-2.117-7.669,0l-15.143,15.143c-10.605-9.049-24.006-14.898-38.713-16.063
	V10.417c0-2.994-2.428-5.422-5.422-5.422c-2.994,0-5.422,2.428-5.422,5.422v21.387c-14.707,1.165-28.107,7.015-38.713,16.063
	L40.828,32.724c-2.118-2.117-5.551-2.117-7.669,0c-2.117,2.118-2.117,5.551,0,7.669l15.143,15.143
	c-9.049,10.605-14.898,24.006-16.063,38.713H10.852c-2.994,0-5.422,2.428-5.422,5.422c0,2.994,2.428,5.422,5.422,5.422h21.387
	c1.165,14.707,7.014,28.108,16.063,38.713L33.159,158.95c-2.117,2.118-2.117,5.551,0,7.669c1.059,1.058,2.446,1.588,3.834,1.588
	c1.388,0,2.775-0.53,3.834-1.588l15.143-15.143c10.605,9.049,24.006,14.898,38.713,16.064v21.388c0,2.994,2.428,5.422,5.422,5.422
	c2.994,0,5.422-2.428,5.422-5.422v-21.388c14.707-1.165,28.108-7.015,38.713-16.063l15.143,15.143
	c1.059,1.058,2.446,1.588,3.834,1.588c1.388,0,2.775-0.53,3.834-1.588c2.117-2.118,2.117-5.551,0-7.669l-15.143-15.143
	c9.049-10.605,14.898-24.006,16.063-38.713h21.388c2.994,0,5.422-2.428,5.422-5.422C194.784,96.677,192.356,94.249,189.361,94.249z
	 M157.101,94.249h-25.059c-0.825-4.9-2.754-9.428-5.522-13.322l17.709-17.709C151.345,71.818,155.994,82.525,157.101,94.249z
	 M136.559,55.55l-17.704,17.704c-3.895-2.775-8.424-4.709-13.327-5.54V42.677C117.252,43.784,127.96,48.433,136.559,55.55z
	 M100.106,121.193c-11.882,0-21.548-9.667-21.548-21.549s9.666-21.548,21.548-21.548s21.549,9.666,21.549,21.548
	S111.988,121.193,100.106,121.193z M94.684,42.677v25.037c-4.903,0.83-9.432,2.765-13.326,5.54L63.653,55.55
	C72.253,48.433,82.96,43.784,94.684,42.677z M55.985,63.219l17.709,17.709c-2.768,3.895-4.697,8.422-5.522,13.322H43.112
	C44.219,82.526,48.867,71.818,55.985,63.219z M43.112,105.094h25.069c0.833,4.893,2.765,9.412,5.535,13.299l-17.731,17.731
	C48.867,127.525,44.219,116.818,43.112,105.094z M63.653,143.793l17.736-17.736c3.887,2.763,8.405,4.69,13.295,5.518v25.091
	C82.96,155.559,72.252,150.91,63.653,143.793z M105.528,156.666v-25.091c4.89-0.828,9.408-2.754,13.295-5.517l17.736,17.736
	C127.96,150.911,117.252,155.559,105.528,156.666z M144.228,136.125l-17.731-17.731c2.77-3.887,4.702-8.407,5.535-13.3h25.069
	C155.994,116.818,151.345,127.525,144.228,136.125z"/>
</svg>
