<?xml version="1.0" encoding="utf-8"?>
<!-- Generator: Adobe Illustrator 27.4.1, SVG Export Plug-In . SVG Version: 6.00 Build 0)  -->
<svg version="1.1" id="Layer_1" xmlns="http://www.w3.org/2000/svg" xmlns:xlink="http://www.w3.org/1999/xlink" x="0px" y="0px"
	 viewBox="0 0 200 200" style="enable-background:new 0 0 200 200;" xml:space="preserve">
<style type="text/css">
	.st0{fill:black;}
	.st1{fill:#9DD7D2;}
</style>
<g>
	<path class="st0" d="M105.968,8.457c10.628,18.805,19.637,36.552,25.392,52.173c0.702,1.906,2.451,3.218,4.482,3.265
		c14.951,0.345,35.206,3.728,57.179,8.095c5.157,1.025,7.2,7.327,3.646,11.202c-13.972,15.234-27.838,28.78-41.552,39.887
		c-1.602,1.298-2.218,3.422-1.577,5.382c6.12,18.703,9.771,37.96,10.877,57.788c0.279,5.006-4.887,8.541-9.475,6.519
		c-21.773-9.6-41.286-19.38-54.672-29.647c-15.181,13.591-33.546,23.668-54.573,30.809c-4.65,1.579-9.373-2.284-8.824-7.164
		c2.632-23.425,5.847-43.873,10.223-58.409c0.581-1.932-0.106-3.992-1.681-5.253C32.151,112.482,18.063,98.528,3.515,82.725
		c-3.471-3.771-1.632-9.917,3.347-11.131c20.601-5.022,40.426-8.776,57.463-7.974c2.213,0.104,4.171-1.34,4.87-3.443
		c5.416-16.288,14.266-33.743,25.09-51.87C96.935,3.871,103.426,3.958,105.968,8.457z"/>
	<g>
		<g>
			<path class="st1" d="M100.083,18.494c-0.148,0-0.322-0.024-0.469-0.05c-0.174-0.05-0.322-0.099-0.472-0.149
				c-0.148-0.074-0.298-0.148-0.421-0.223c-0.148-0.099-0.271-0.198-0.397-0.322c-0.223-0.223-0.394-0.496-0.52-0.793
				c-0.123-0.296-0.198-0.619-0.198-0.941c0-0.322,0.075-0.643,0.198-0.965c0.126-0.298,0.298-0.571,0.52-0.793
				c0.126-0.123,0.249-0.223,0.397-0.322c0.123-0.075,0.273-0.149,0.421-0.223c0.15-0.05,0.298-0.099,0.472-0.125
				c0.793-0.173,1.659,0.099,2.23,0.669c0.223,0.223,0.394,0.496,0.52,0.793c0.148,0.322,0.196,0.619,0.196,0.965
				c0,0.322-0.048,0.645-0.196,0.941c-0.126,0.298-0.298,0.571-0.52,0.793C101.372,18.222,100.729,18.494,100.083,18.494z"/>
			<path class="st1" d="M143.602,173.469c-0.842-1.064-0.643-2.624,0.421-3.466l0,0c1.091-0.842,2.651-0.646,3.493,0.421l0,0
				c0.842,1.088,0.643,2.624-0.421,3.466l0,0c-0.445,0.372-0.992,0.547-1.536,0.547l0,0
				C144.816,174.436,144.098,174.115,143.602,173.469z M134.785,162.224c-0.842-1.064-0.67-2.624,0.421-3.466l0,0
				c1.064-0.842,2.624-0.67,3.466,0.421l0,0c0.844,1.064,0.67,2.624-0.421,3.466l0,0c-0.445,0.348-0.989,0.52-1.536,0.52l0,0
				C135.997,163.165,135.254,162.843,134.785,162.224z M125.942,150.979c-0.842-1.088-0.668-2.624,0.421-3.49l0,0
				c1.064-0.844,2.627-0.646,3.469,0.421l0,0c0.866,1.088,0.668,2.649-0.397,3.49l0,0c-0.472,0.348-1.016,0.52-1.536,0.52l0,0
				C127.156,151.92,126.438,151.598,125.942,150.979z M117.126,139.734c-0.868-1.088-0.67-2.649,0.394-3.49l0,0
				c1.091-0.844,2.651-0.646,3.493,0.421l0,0c0.842,1.088,0.646,2.624-0.421,3.466l0,0c-0.445,0.372-0.989,0.547-1.536,0.547l0,0
				C118.337,140.677,117.595,140.353,117.126,139.734z M108.283,128.465c-0.842-1.064-0.67-2.624,0.421-3.466l0,0
				c1.064-0.844,2.624-0.67,3.469,0.421l0,0c0.842,1.064,0.668,2.624-0.421,3.466l0,0c-0.447,0.372-0.992,0.52-1.512,0.52l0,0
				C109.497,129.406,108.778,129.084,108.283,128.465z M99.44,117.22c-0.842-1.088-0.643-2.624,0.421-3.466l0,0
				c1.091-0.868,2.651-0.67,3.493,0.394l0,0c0.842,1.091,0.643,2.651-0.421,3.493l0,0c-0.469,0.348-0.992,0.52-1.536,0.52l0,0
				C100.654,118.161,99.935,117.839,99.44,117.22z M97.606,101.839c0-1.362,1.115-2.477,2.477-2.477l0,0
				c1.364,0,2.477,1.115,2.477,2.477l0,0c0,1.362-1.113,2.477-2.477,2.477l0,0C98.721,104.316,97.606,103.201,97.606,101.839z
				 M97.606,87.522c0-1.362,1.115-2.477,2.477-2.477l0,0c1.364,0,2.477,1.115,2.477,2.477l0,0c0,1.388-1.113,2.477-2.477,2.477l0,0
				C98.721,89.999,97.606,88.911,97.606,87.522z M97.606,73.232c0-1.386,1.115-2.477,2.477-2.477l0,0
				c1.364,0,2.477,1.091,2.477,2.477l0,0c0,1.362-1.113,2.477-2.477,2.477l0,0C98.721,75.709,97.606,74.594,97.606,73.232z
				 M97.606,58.916c0-1.363,1.115-2.477,2.477-2.477l0,0c1.364,0,2.477,1.114,2.477,2.477l0,0c0,1.362-1.113,2.477-2.477,2.477l0,0
				C98.721,61.393,97.606,60.278,97.606,58.916z M97.606,44.625c0-1.387,1.115-2.477,2.477-2.477l0,0
				c1.364,0,2.477,1.09,2.477,2.477l0,0c0,1.362-1.113,2.477-2.477,2.477l0,0C98.721,47.102,97.606,45.987,97.606,44.625z
				 M97.606,30.308c0-1.362,1.115-2.477,2.477-2.477l0,0c1.364,0,2.477,1.115,2.477,2.477l0,0c0,1.363-1.113,2.477-2.477,2.477l0,0
				C98.721,32.785,97.606,31.671,97.606,30.308z"/>
			<path class="st1" d="M154.402,185.681c-0.67,0-1.289-0.249-1.758-0.718c-0.472-0.472-0.718-1.091-0.718-1.758
				c0-0.646,0.247-1.289,0.718-1.734c0.568-0.595,1.41-0.868,2.228-0.694c0.174,0.024,0.322,0.075,0.472,0.15
				c0.148,0.048,0.298,0.123,0.421,0.223c0.148,0.099,0.273,0.198,0.372,0.322c0.247,0.223,0.421,0.496,0.544,0.791
				c0.123,0.298,0.198,0.619,0.198,0.943c0,0.668-0.273,1.287-0.743,1.758C155.688,185.432,155.069,185.681,154.402,185.681z"/>
		</g>
		<g>
			<path class="st1" d="M48.144,181.569c-0.322,0-0.643-0.075-0.941-0.198c-0.298-0.123-0.568-0.298-0.818-0.544
				c-0.223-0.225-0.397-0.496-0.544-0.793c-0.123-0.298-0.174-0.619-0.174-0.941s0.051-0.643,0.198-0.941
				c0.123-0.322,0.298-0.595,0.52-0.818c0.123-0.099,0.249-0.223,0.372-0.298c0.148-0.099,0.298-0.174,0.445-0.249
				c0.15-0.048,0.298-0.099,0.445-0.123c0.793-0.172,1.659,0.099,2.254,0.67c0.447,0.469,0.718,1.115,0.718,1.758
				c0,0.643-0.247,1.263-0.718,1.734C49.434,181.296,48.814,181.569,48.144,181.569z"/>
			<path class="st1" d="M55.403,170.399c-1.042-0.868-1.19-2.453-0.298-3.493l0,0c0.866-1.04,2.426-1.19,3.49-0.322l0,0
				c1.042,0.89,1.166,2.45,0.298,3.49l0,0c-0.493,0.595-1.188,0.893-1.906,0.893l0,0C56.443,170.968,55.872,170.77,55.403,170.399z
				 M64.268,159.798c-1.064-0.868-1.188-2.428-0.322-3.493l0,0c0.868-1.04,2.453-1.19,3.493-0.298l0,0
				c1.04,0.866,1.19,2.428,0.322,3.493l0,0c-0.496,0.568-1.212,0.866-1.906,0.866l0,0C65.284,160.366,64.715,160.195,64.268,159.798
				z M73.111,149.196c-1.04-0.866-1.188-2.426-0.298-3.493l0,0c0.868-1.04,2.428-1.163,3.469-0.298l0,0
				c1.064,0.868,1.188,2.428,0.322,3.493l0,0c-0.496,0.571-1.19,0.893-1.908,0.893l0,0
				C74.151,149.791,73.583,149.593,73.111,149.196z M81.978,138.621c-1.064-0.893-1.188-2.453-0.322-3.493l0,0
				c0.866-1.067,2.453-1.19,3.493-0.322l0,0c1.04,0.89,1.188,2.45,0.298,3.49l0,0c-0.472,0.595-1.19,0.893-1.884,0.893l0,0
				C82.994,139.19,82.423,138.992,81.978,138.621z M90.821,128.02c-1.04-0.893-1.19-2.428-0.298-3.493l0,0
				c0.866-1.04,2.426-1.188,3.466-0.298l0,0c1.067,0.868,1.214,2.428,0.324,3.469l0,0c-0.496,0.595-1.19,0.89-1.908,0.89l0,0
				C91.861,128.588,91.291,128.417,90.821,128.02z"/>
			<path class="st1" d="M101.273,118.013c-0.322,0-0.643-0.075-0.941-0.198c-0.322-0.123-0.571-0.298-0.818-0.544
				c-0.223-0.223-0.397-0.496-0.544-0.793c-0.126-0.298-0.174-0.619-0.174-0.941c0-0.346,0.048-0.643,0.174-0.965
				c0.148-0.298,0.322-0.571,0.544-0.793c0.568-0.571,1.437-0.842,2.23-0.67c0.172,0.027,0.322,0.075,0.469,0.126
				c0.15,0.073,0.298,0.148,0.421,0.223c0.15,0.099,0.273,0.198,0.397,0.322c0.223,0.223,0.397,0.496,0.52,0.793
				c0.123,0.322,0.198,0.619,0.198,0.965c0,0.322-0.075,0.643-0.198,0.941c-0.123,0.298-0.298,0.571-0.52,0.793
				c-0.247,0.247-0.52,0.421-0.818,0.544C101.916,117.938,101.595,118.013,101.273,118.013z"/>
		</g>
		<g>
			<path class="st1" d="M20.132,83.56c-0.643,0-1.289-0.273-1.734-0.743c-0.247-0.223-0.421-0.496-0.544-0.793
				c-0.126-0.298-0.198-0.619-0.198-0.941c0-0.322,0.073-0.643,0.198-0.965c0.123-0.298,0.298-0.571,0.544-0.793
				c0.893-0.917,2.576-0.917,3.493,0c0.223,0.223,0.421,0.496,0.544,0.793c0.123,0.322,0.174,0.643,0.174,0.965
				c0,0.322-0.051,0.643-0.174,0.941s-0.322,0.571-0.544,0.793C21.419,83.287,20.8,83.56,20.132,83.56z"/>
			<path class="st1" d="M86.784,112.068c-1.265-0.544-1.858-1.981-1.313-3.268l0,0c0.52-1.238,1.981-1.833,3.244-1.289l0,0
				c1.265,0.52,1.858,1.981,1.313,3.246l0,0c-0.397,0.941-1.313,1.509-2.278,1.509l0,0C87.428,112.266,87.08,112.194,86.784,112.068
				z M73.261,106.323c-1.265-0.547-1.858-1.983-1.313-3.246l0,0c0.52-1.263,1.981-1.858,3.244-1.313l0,0
				c1.265,0.522,1.833,1.983,1.313,3.246l0,0c-0.397,0.941-1.313,1.512-2.278,1.512l0,0
				C73.904,106.522,73.556,106.447,73.261,106.323z M59.738,100.576c-1.265-0.52-1.858-1.981-1.313-3.244l0,0
				c0.544-1.265,1.981-1.858,3.244-1.313l0,0c1.263,0.544,1.858,1.981,1.313,3.244l0,0c-0.397,0.941-1.313,1.512-2.278,1.512l0,0
				C60.381,100.775,60.059,100.724,59.738,100.576z M46.212,94.829c-1.263-0.52-1.858-1.981-1.311-3.244l0,0
				c0.544-1.263,1.981-1.833,3.244-1.313l0,0c1.263,0.544,1.858,1.981,1.313,3.246l0,0c-0.397,0.941-1.313,1.509-2.278,1.509l0,0
				C46.858,95.028,46.536,94.979,46.212,94.829z M32.688,89.109c-1.263-0.544-1.858-2.008-1.311-3.27l0,0
				c0.544-1.238,1.981-1.833,3.244-1.313l0,0c1.263,0.547,1.858,2.008,1.313,3.27l0,0c-0.397,0.941-1.313,1.488-2.278,1.488l0,0
				C33.334,89.283,33.012,89.232,32.688,89.109z"/>
			<path class="st1" d="M101.273,118.013c-0.322,0-0.643-0.075-0.941-0.198c-0.322-0.123-0.571-0.298-0.818-0.544
				c-0.223-0.223-0.397-0.496-0.544-0.793c-0.126-0.298-0.174-0.619-0.174-0.941c0-0.346,0.048-0.643,0.174-0.965
				c0.148-0.298,0.322-0.571,0.544-0.793c0.568-0.571,1.437-0.842,2.23-0.67c0.172,0.027,0.322,0.075,0.469,0.126
				c0.15,0.073,0.298,0.148,0.421,0.223c0.15,0.099,0.273,0.198,0.397,0.322c0.223,0.223,0.397,0.496,0.52,0.793
				c0.123,0.322,0.198,0.619,0.198,0.965c0,0.322-0.075,0.643-0.198,0.941c-0.123,0.298-0.298,0.571-0.52,0.793
				c-0.247,0.247-0.52,0.421-0.818,0.544C101.916,117.938,101.595,118.013,101.273,118.013z"/>
		</g>
		<g>
			<path class="st1" d="M182.389,83.56c-0.668,0-1.287-0.273-1.734-0.743c-0.469-0.472-0.743-1.091-0.743-1.734
				c0-0.322,0.075-0.643,0.198-0.965c0.123-0.298,0.298-0.571,0.544-0.793c0.223-0.223,0.496-0.421,0.793-0.544
				c0.917-0.372,2.005-0.15,2.699,0.544c0.472,0.472,0.743,1.091,0.743,1.758c0,0.322-0.073,0.643-0.198,0.941
				c-0.123,0.298-0.322,0.571-0.544,0.793c-0.223,0.247-0.496,0.421-0.793,0.544C183.057,83.485,182.735,83.56,182.389,83.56z"/>
			<path class="st1" d="M112.518,110.757c-0.544-1.265,0.048-2.726,1.313-3.246l0,0c1.238-0.544,2.699,0.051,3.244,1.313l0,0
				c0.52,1.238-0.048,2.699-1.313,3.244l0,0c-0.322,0.126-0.643,0.198-0.965,0.198l0,0
				C113.831,112.266,112.915,111.698,112.518,110.757z M126.041,105.01c-0.544-1.263,0.048-2.724,1.287-3.246l0,0
				c1.265-0.544,2.726,0.051,3.27,1.313l0,0c0.52,1.263-0.075,2.699-1.313,3.246l0,0c-0.322,0.123-0.643,0.198-0.965,0.198l0,0
				C127.355,106.522,126.438,105.951,126.041,105.01z M139.565,99.263c-0.544-1.263,0.051-2.699,1.289-3.244l0,0
				c1.263-0.544,2.724,0.048,3.268,1.313l0,0c0.52,1.263-0.075,2.724-1.313,3.244l0,0c-0.322,0.148-0.643,0.198-0.965,0.198l0,0
				C140.878,100.775,139.961,100.204,139.565,99.263z M153.064,93.518c-0.52-1.265,0.075-2.702,1.313-3.246l0,0
				c1.263-0.52,2.724,0.051,3.268,1.313l0,0c0.52,1.263-0.073,2.724-1.338,3.244l0,0c-0.298,0.15-0.643,0.198-0.965,0.198l0,0
				C154.377,95.028,153.461,94.459,153.064,93.518z M166.587,87.796c-0.52-1.263,0.048-2.724,1.313-3.27l0,0
				c1.263-0.52,2.724,0.075,3.244,1.313l0,0c0.544,1.263-0.048,2.726-1.313,3.27l0,0c-0.298,0.123-0.643,0.174-0.965,0.174l0,0
				C167.901,89.283,166.984,88.736,166.587,87.796z"/>
			<path class="st1" d="M101.273,118.013c-0.322,0-0.643-0.075-0.941-0.198c-0.322-0.123-0.571-0.298-0.818-0.544
				c-0.223-0.223-0.397-0.496-0.544-0.793c-0.126-0.298-0.174-0.619-0.174-0.941c0-0.346,0.048-0.643,0.174-0.965
				c0.148-0.298,0.322-0.571,0.544-0.793c0.568-0.571,1.437-0.842,2.23-0.67c0.172,0.027,0.322,0.075,0.469,0.126
				c0.15,0.073,0.298,0.148,0.421,0.223c0.15,0.099,0.273,0.198,0.397,0.322c0.223,0.223,0.397,0.496,0.52,0.793
				c0.123,0.322,0.198,0.619,0.198,0.965c0,0.322-0.075,0.643-0.198,0.941c-0.123,0.298-0.298,0.571-0.52,0.793
				c-0.247,0.247-0.52,0.421-0.818,0.544C101.916,117.938,101.595,118.013,101.273,118.013z"/>
		</g>
	</g>
</g>
</svg>
