<?xml version="1.0" encoding="utf-8"?>
<!-- Generator: Adobe Illustrator 27.4.1, SVG Export Plug-In . SVG Version: 6.00 Build 0)  -->
<svg version="1.1" id="Layer_1" xmlns="http://www.w3.org/2000/svg" xmlns:xlink="http://www.w3.org/1999/xlink" x="0px" y="0px"
	 viewBox="0 0 200 200" style="enable-background:new 0 0 200 200;" xml:space="preserve">
<style type="text/css">
	.st0{fill:black;}
</style>
<g>
	<path class="st0" d="M186.328,146.159c-8.271,0-15.664-4.938-18.836-12.578c-0.457-1.099-1.53-1.815-2.719-1.815
		c-1.19,0-2.263,0.717-2.719,1.816c-3.172,7.64-10.565,12.578-18.836,12.578c-8.27,0-15.664-4.938-18.836-12.578
		c-0.457-1.099-1.53-1.815-2.719-1.815c-1.19,0-2.263,0.716-2.719,1.815c-3.172,7.641-10.566,12.578-18.836,12.578
		c-8.271,0-15.664-4.938-18.836-12.578c-0.456-1.099-1.529-1.816-2.719-1.816c-1.189,0-2.263,0.717-2.719,1.815
		c-3.172,7.641-10.566,12.578-18.836,12.578s-15.663-4.938-18.835-12.578c-0.457-1.098-1.529-1.815-2.719-1.815
		c-1.19,0-2.263,0.716-2.719,1.815c-3.173,7.641-10.566,12.578-18.836,12.578c-1.626,0-2.944,1.318-2.944,2.944
		c0,1.626,1.318,2.944,2.944,2.944c8.734,0,16.711-4.273,21.556-11.236c4.844,6.962,12.82,11.236,21.555,11.236
		c8.735,0,16.711-4.273,21.556-11.236c4.844,6.962,12.821,11.236,21.556,11.236c8.735,0,16.711-4.272,21.555-11.236
		c4.845,6.963,12.821,11.236,21.556,11.236c8.735,0,16.711-4.273,21.555-11.236c4.845,6.962,12.821,11.236,21.556,11.236
		c1.626,0,2.944-1.318,2.944-2.944C189.272,147.477,187.954,146.159,186.328,146.159z"/>
	<path class="st0" d="M56.996,175.738c4.844,6.962,12.82,11.236,21.555,11.236c8.734,0,16.711-4.274,21.556-11.236
		c4.844,6.962,12.82,11.236,21.555,11.236c8.735,0,16.711-4.273,21.556-11.236c4.845,6.962,12.821,11.236,21.556,11.236
		c1.626,0,2.944-1.318,2.944-2.944c0-1.626-1.318-2.944-2.944-2.944c-8.27,0-15.664-4.937-18.836-12.578
		c-0.457-1.099-1.53-1.815-2.719-1.815c-1.19,0-2.263,0.717-2.719,1.815c-3.172,7.641-10.566,12.578-18.836,12.578
		c-8.271,0-15.664-4.937-18.835-12.578c-0.456-1.099-1.529-1.816-2.719-1.816c-1.189,0-2.263,0.716-2.719,1.815
		c-3.173,7.641-10.567,12.578-18.837,12.578c-8.27,0-15.664-4.937-18.836-12.578c-0.456-1.099-1.529-1.816-2.719-1.816
		c-1.189,0-2.263,0.717-2.719,1.815c-3.172,7.641-10.566,12.578-18.836,12.578c-1.626,0-2.944,1.318-2.944,2.944
		c0,1.626,1.318,2.944,2.944,2.944C44.175,186.974,52.151,182.7,56.996,175.738z"/>
	<path class="st0" d="M25.083,24.938c-0.791-0.053-1.566,0.212-2.157,0.736c-0.591,0.525-0.945,1.266-0.985,2.055
		c-0.057,1.162-0.09,2.333-0.09,3.51c0,34.846,25.737,63.6,58.635,65.566c0.908,0.209,5.681,1.53,8.853,6.649
		c3.618,5.84,3.894,14.399,0.82,25.441c-0.436,1.566,0.48,3.189,2.047,3.626c0.264,0.073,0.53,0.108,0.791,0.108
		c1.289,0,2.473-0.853,2.835-2.156c3.557-12.776,3.027-22.957-1.574-30.261c-4.878-7.742-12.546-9.177-12.87-9.234
		c-0.115-0.021-0.232-0.034-0.348-0.041c-29.888-1.674-53.3-27.898-53.3-59.7c0-0.06,0-0.119,0-0.179
		c32.66,3.055,60.748,18.915,73.784,41.839c0.805,1.413,2.602,1.906,4.015,1.104c1.413-0.804,1.908-2.601,1.104-4.015
		C92.238,44.656,60.986,27.394,25.083,24.938z"/>
	<path class="st0" d="M152.976,12.459c-1.062,0.042-2.018,0.652-2.504,1.596c-4.096,7.97-12.63,11.405-22.512,15.382
		c-9.673,3.893-20.636,8.306-28.971,18.041c-1.058,1.235-0.914,3.094,0.321,4.151c1.235,1.059,3.093,0.914,4.151-0.321
		c7.398-8.64,17.209-12.589,26.697-16.408c8.735-3.516,17.067-6.869,22.562-13.589c2.547,6.054,6.055,17.78,2.645,31.169
		c-3.889,15.271-15.606,28.585-34.827,39.571c-0.708,0.405-1.216,1.086-1.404,1.88c-0.188,0.794-0.037,1.63,0.415,2.309
		c5.039,7.562,7.855,16.3,8.608,26.714c0.112,1.549,1.404,2.732,2.933,2.732c0.071,0,0.143-0.002,0.216-0.008
		c1.622-0.117,2.842-1.527,2.724-3.149c-0.732-10.124-3.398-19.162-7.93-26.914c19.102-11.523,30.861-25.534,34.973-41.681
		c5.561-21.836-5.024-39.344-5.477-40.079C155.039,12.95,154.026,12.418,152.976,12.459z"/>
</g>
</svg>
